<svg width="54" height="54" viewBox="0 0 54 54" fill="none" xmlns="http://www.w3.org/2000/svg">
<path d="M26.9539 53.0156C19.8539 53.0156 13.2039 50.2656 8.2039 45.2656C-2.14609 34.9156 -2.14609 18.1156 8.2039 7.7656C13.2039 2.76562 19.8539 0.015625 26.9539 0.015625C34.0539 0.015625 40.7039 2.76562 45.7039 7.7656C50.7039 12.7656 53.4539 19.4156 53.4539 26.5156C53.4539 33.6156 50.7039 40.2656 45.7039 45.2656C40.7039 50.2656 34.0539 53.0156 26.9539 53.0156ZM26.9539 3.01562C20.6539 3.01562 14.7539 5.4656 10.3539 9.9156C1.20391 19.0656 1.20391 33.9656 10.3539 43.1656C14.7539 47.5656 20.6539 50.0156 26.9539 50.0156C33.2539 50.0156 39.1539 47.5656 43.5539 43.1156C47.9539 38.6656 50.4539 32.8156 50.4539 26.5156C50.4539 20.2156 48.0039 14.3156 43.5539 9.9156C39.1039 5.5156 33.2539 3.01562 26.9539 3.01562Z" fill="white"/>
<path d="M21.6523 33.3148C21.2523 33.3148 20.9023 33.1648 20.6023 32.8648C20.0023 32.2648 20.0023 31.3148 20.6023 30.7648L31.2023 20.1648C31.8023 19.5648 32.7523 19.5648 33.3023 20.1648C33.9023 20.7648 33.9023 21.7148 33.3023 22.2648L22.7023 32.8648C22.4023 33.1648 22.0523 33.3148 21.6523 33.3148Z" fill="white"/>
<path d="M32.2523 33.3148C31.8523 33.3148 31.5023 33.1648 31.2023 32.8648L20.6023 22.2648C20.0023 21.6648 20.0023 20.7148 20.6023 20.1648C21.2023 19.5648 22.1523 19.5648 22.7023 20.1648L33.3023 30.7648C33.9023 31.3648 33.9023 32.3148 33.3023 32.8648C33.0023 33.1648 32.6523 33.3148 32.2523 33.3148Z" fill="white"/>
</svg>
