<svg width="262" height="262" viewBox="0 0 262 262" fill="none" xmlns="http://www.w3.org/2000/svg">
<path d="M52.7613 1.22551C49.0279 2.82551 47.8279 5.22551 44.8946 17.4922C42.0946 28.8255 41.6946 29.2255 31.0279 29.2255C21.8279 29.2255 15.1613 31.6255 13.4279 35.2255C12.3613 37.6255 12.8946 47.6255 15.5613 76.1588C17.4279 96.9588 19.0279 116.559 19.0279 119.759C19.0279 122.959 17.2946 132.826 15.1613 141.759C-2.03873 213.359 -1.63873 210.159 5.42794 213.626C7.42794 214.692 13.2946 216.559 18.6279 217.759L28.0946 220.159L29.0279 231.359C30.3613 246.559 32.4946 249.226 42.7613 249.226C46.8946 249.226 59.0279 248.292 69.6946 247.226C80.3613 246.159 96.628 244.692 105.961 243.892C124.895 242.292 117.428 241.092 179.028 256.026C191.161 259.092 203.161 261.492 205.695 261.492C211.828 261.492 213.961 258.559 217.028 245.359C219.828 233.226 218.895 233.892 233.961 232.692C244.628 231.892 248.095 230.026 249.028 224.559C249.428 222.426 248.228 204.159 246.361 184.292C242.361 140.559 242.361 138.692 245.695 125.626C252.095 100.692 261.695 58.8255 261.695 56.2922C261.695 50.9588 257.561 48.0255 245.561 45.0922L233.961 42.2922L233.161 32.1588C231.961 19.2255 230.361 15.0922 225.961 13.4922C223.561 12.6922 208.361 13.6255 181.028 16.1588L139.695 19.8922L119.695 15.0922C108.761 12.5588 89.9613 8.02551 78.0946 5.09217C66.3613 2.29217 56.3613 -0.107826 56.0946 0.0255072C55.9613 0.0255072 54.3613 0.558841 52.7613 1.22551ZM219.028 30.5588C219.028 34.0255 225.161 105.892 228.228 139.226C229.695 153.892 230.628 166.159 230.361 166.426C230.095 166.692 217.295 168.026 202.095 169.359C127.961 175.892 66.3613 181.359 54.3613 182.292C47.0279 182.959 40.6279 183.092 40.0946 182.692C39.2946 182.026 33.6946 123.759 29.6946 74.5588C28.8946 65.3588 27.9613 54.8255 27.5613 50.9588L26.8946 44.0255L31.2946 43.3588C33.6946 42.9588 47.6946 41.7588 62.3613 40.5588C77.028 39.3588 98.8946 37.4922 111.028 36.4255C155.161 32.2922 203.828 28.1588 211.428 28.0255C218.095 27.8922 219.028 28.1588 219.028 30.5588Z" fill="black"/>
<path d="M184.894 44.4255C184.361 45.8922 183.161 46.4255 181.561 45.8922C179.694 45.2255 179.027 45.7589 179.027 47.7589C179.027 49.7589 178.227 50.5589 176.227 50.5589C173.827 50.5589 173.694 50.8255 175.027 52.5589C176.361 54.1589 176.361 54.9589 174.894 56.6922C173.561 58.4255 173.561 58.9589 175.027 59.8922C175.961 60.4255 176.361 61.8922 175.961 63.0922C175.294 64.5589 175.827 65.2255 177.694 65.2255C179.294 65.2255 180.361 66.1589 180.361 67.3589C180.361 68.8255 181.027 69.2255 182.494 68.6922C183.694 68.1589 185.561 68.5589 186.761 69.4922C188.361 70.8255 188.894 70.8255 189.294 69.4922C189.694 68.6922 191.027 67.8922 192.494 67.8922C193.827 67.8922 195.027 66.9589 195.027 65.8922C195.027 64.8255 195.961 63.8922 197.161 63.8922C198.361 63.8922 199.027 62.9589 198.761 61.4922C198.627 60.2922 198.894 58.4255 199.561 57.4922C200.094 56.5589 199.961 54.9589 199.027 53.8922C198.227 52.8255 197.827 51.3589 198.361 50.5589C198.894 49.6255 198.094 48.6922 196.494 48.2922C194.894 47.8922 193.694 46.6922 193.694 45.6255C193.694 44.2922 192.894 43.8922 191.561 44.4255C190.361 44.9589 188.494 44.5589 187.561 43.7589C186.094 42.5589 185.561 42.8255 184.894 44.4255Z" fill="black"/>
<path d="M94.094 80.9602C93.4273 81.4935 89.1607 87.8935 84.7607 95.2268C80.3607 102.56 70.094 119.493 61.8273 132.96C48.894 154.16 47.0273 158.027 47.0273 163.227C47.0273 171.893 47.8273 173.093 53.4273 172.427C58.494 171.893 108.494 167.493 172.494 162.027C191.961 160.427 208.627 158.56 209.427 158.027C213.027 155.76 214.361 157.627 177.427 115.493C166.761 103.36 159.294 95.8935 157.694 95.8935C155.961 95.8935 152.761 100.16 146.894 109.893C142.227 117.627 137.827 123.893 137.027 123.893C136.361 123.893 127.294 114.293 117.027 102.56C106.894 90.8268 97.8273 81.0935 97.0273 80.6935C96.094 80.4268 94.894 80.5602 94.094 80.9602ZM171.027 123.493C171.027 126.427 165.561 129.227 162.627 127.76C160.894 126.693 159.694 126.693 158.627 127.76C156.494 129.893 151.694 129.627 149.694 127.36C148.494 125.76 148.894 124.027 151.827 118.96C157.827 108.293 158.761 108.027 165.294 115.493C168.494 118.96 171.027 122.56 171.027 123.493Z" fill="black"/>
</svg>
